<svg xmlns="http://www.w3.org/2000/svg" viewBox="0 0 24 24" fill="none">
  <rect x="2" y="2" width="20" height="20" rx="2" fill="#06B6D4"/>
  <path d="M12 8 C10 8 9 9 8.5 11 C9.5 10 10.5 9.75 11.5 10.25 C12 10.5 12.5 11 13 11.5 C14 12.5 15.5 13 17 13 C19 13 20 12 20.5 10 C19.5 11 18.5 11.25 17.5 10.75 C17 10.5 16.5 10 16 9.5 C15 8.5 13.5 8 12 8Z" fill="white"/>
  <path d="M8.5 13 C6.5 13 5.5 14 5 16 C6 15 7 14.75 8 15.25 C8.5 15.5 9 16 9.5 16.5 C10.5 17.5 12 18 13.5 18 C15.5 18 16.5 17 17 15 C16 16 15 16.25 14 15.75 C13.5 15.5 13 15 12.5 14.5 C11.5 13.5 10 13 8.5 13Z" fill="white" opacity="0.7"/>
</svg>
