<svg width="16" height="16" viewBox="0 0 16 16" fill="none" xmlns="http://www.w3.org/2000/svg">
<circle cx="8" cy="8" r="8" fill="black"/>
<path fill-rule="evenodd" clip-rule="evenodd" d="M3.375 13.2188H7.74291V11.7824H6.541V9.23213H7.49374C8.09469 9.23213 8.28524 9.36404 8.5051 9.75977L9.9855 12.4419C10.308 13.0429 10.5718 13.2188 11.4366 13.2188H12.6531V11.7824H12.316C11.9643 11.7824 11.759 11.7091 11.6125 11.4453L10.4106 9.2761C10.2054 8.89503 9.89755 8.7338 9.89755 8.7338V8.70449C11.0995 8.2941 11.8616 7.26813 11.8616 5.81712C11.8616 4.35145 11.0995 3.41342 9.94153 3.03235C9.35523 2.85647 8.72496 2.8125 7.96277 2.8125H3.375V4.26351H4.62088V11.7824H3.375V13.2188Z" fill="white"/>
<path fill-rule="evenodd" clip-rule="evenodd" d="M6.54102 7.69318V4.35146H7.94813C8.43182 4.35146 8.82757 4.41008 9.12072 4.54199C9.69236 4.7765 9.94153 5.30414 9.94153 5.97835C9.94153 7.09226 9.28195 7.69318 8.27059 7.69318H6.54102Z" fill="black"/>
</svg>
